<svg width="16" height="16" viewBox="0 0 16 16" fill="none" xmlns="http://www.w3.org/2000/svg">
<path fill-rule="evenodd" clip-rule="evenodd" d="M8.82353 15.6671C8.71895 15.7715 8.59477 15.8531 8.45098 15.9119C8.30719 15.9706 8.15686 16 8 16C7.84314 16 7.69281 15.9706 7.54902 15.9119C7.40523 15.8531 7.28105 15.7715 7.17647 15.6671L0.313726 8.81273C0.20915 8.70828 0.130719 8.58425 0.0784314 8.44064C0.0261438 8.29702 0 8.14688 0 7.99021C0 7.83354 0.0261438 7.68339 0.0784314 7.53978C0.130719 7.39616 0.20915 7.27213 0.313726 7.16769L7.17647 0.313341C7.28105 0.208894 7.40523 0.130559 7.54902 0.0783354C7.69281 0.0261118 7.84314 0 8 0C8.15686 0 8.30719 0.0261118 8.45098 0.0783354C8.59477 0.130559 8.71895 0.208894 8.82353 0.313341L15.6863 7.16769C15.7908 7.27213 15.8693 7.39616 15.9216 7.53978C15.9739 7.68339 16 7.83354 16 7.99021C16 8.14688 15.9739 8.29702 15.9216 8.44064C15.8693 8.58425 15.7908 8.70828 15.6863 8.81273L8.82353 15.6671ZM8 8.77356C8.16993 8.77356 8.31046 8.71807 8.42157 8.6071C8.53268 8.49612 8.58823 8.35577 8.58823 8.18605V4.66095C8.58823 4.49123 8.53268 4.35088 8.42157 4.2399C8.31046 4.12893 8.16993 4.07344 8 4.07344C7.83007 4.07344 7.68954 4.12893 7.57843 4.2399C7.46732 4.35088 7.41176 4.49123 7.41176 4.66095V8.18605C7.41176 8.35577 7.46732 8.49612 7.57843 8.6071C7.68954 8.71807 7.83007 8.77356 8 8.77356ZM8.41176 10.7515C8.29412 10.869 8.15686 10.9278 8 10.9278C7.84314 10.9278 7.70588 10.869 7.58824 10.7515C7.47059 10.634 7.41176 10.4969 7.41176 10.3403C7.41176 10.1836 7.47059 10.0465 7.58824 9.92901C7.70588 9.81151 7.84314 9.75275 8 9.75275C8.15686 9.75275 8.29412 9.81151 8.41176 9.92901C8.52941 10.0465 8.58823 10.1836 8.58823 10.3403C8.58823 10.4969 8.52941 10.634 8.41176 10.7515Z" fill="#F55F5F"/>
</svg>
