<svg width="29" height="24" xmlns="http://www.w3.org/2000/svg">
    <g fill="none" fill-rule="evenodd">
        <g transform="translate(3)">
            <rect fill="#FBFBFB" fill-rule="nonzero" x="2.118" width="6.3" height="5.71" rx="2.855"/>
            <path d="M5.911 5.5c-1.836 0-5.5.893-5.5 2.667V9.5h11V8.167c0-1.774-3.664-2.667-5.5-2.667z" fill="#FFF" fill-rule="nonzero"/>
            <path d="M5.234 5.713c1.722 0 3.116-1.278 3.116-2.856C8.35 1.278 6.956 0 5.234 0 3.512 0 2.118 1.278 2.118 2.857c0 1.578 1.394 2.856 3.116 2.856z" fill-rule="nonzero"/>
            <path d="M5.234.5c.728 0 1.389.267 1.866.705.461.423.75 1.005.75 1.652 0 .646-.289 1.229-.75 1.651a2.754 2.754 0 0 1-1.866.705 2.754 2.754 0 0 1-1.866-.705c-.46-.422-.75-1.005-.75-1.651 0-.647.29-1.23.75-1.652A2.754 2.754 0 0 1 5.234.5z" stroke="#DFE3E9" fill="#FFF"/>
            <g fill="#5D6A74" fill-rule="nonzero">
                <path d="M5.232 5.296c1.446 0 2.617-1.073 2.617-2.398C7.849 1.573 6.678.5 5.232.5 3.787.5 2.616 1.573 2.616 2.898c0 1.325 1.171 2.398 2.616 2.398zm0 0c1.446 0 2.617-1.073 2.617-2.398C7.849 1.573 6.678.5 5.232.5 3.787.5 2.616 1.573 2.616 2.898c0 1.325 1.171 2.398 2.616 2.398zm0 1.2C3.486 6.496 0 7.299 0 8.894v1.199h10.465v-1.2c0-1.594-3.486-2.397-5.233-2.397z"/>
            </g>
        </g>
        <g transform="translate(6.411 3)">
            <rect fill="#FBFBFB" fill-rule="nonzero" x="2.707" width="6.3" height="5.71" rx="2.855"/>
            <path d="M5.5 5.5C3.664 5.5 0 6.393 0 8.167V9.5h11V8.167C11 6.393 7.336 5.5 5.5 5.5z" fill="#FFF" fill-rule="nonzero"/>
            <path d="M5.823 5.713c1.722 0 3.116-1.278 3.116-2.856C8.94 1.278 7.545 0 5.823 0 4.101 0 2.707 1.278 2.707 2.857c0 1.578 1.394 2.856 3.116 2.856z" fill-rule="nonzero"/>
            <path d="M5.823.5c.728 0 1.389.267 1.866.705.461.423.75 1.005.75 1.652 0 .646-.289 1.229-.75 1.651a2.754 2.754 0 0 1-1.866.705 2.754 2.754 0 0 1-1.866-.705c-.46-.422-.75-1.005-.75-1.651 0-.647.29-1.23.75-1.652A2.754 2.754 0 0 1 5.823.5z" stroke="#DFE3E9" fill="none"/>
            <g fill="#5D6A74" fill-rule="nonzero">
                <path d="M5.821 5.296c1.446 0 2.617-1.073 2.617-2.398C8.438 1.573 7.267.5 5.82.5 4.376.5 3.205 1.573 3.205 2.898c0 1.325 1.17 2.398 2.616 2.398zm0 0c1.446 0 2.617-1.073 2.617-2.398C8.438 1.573 7.267.5 5.82.5 4.376.5 3.205 1.573 3.205 2.898c0 1.325 1.17 2.398 2.616 2.398zm0 1.2C4.075 6.496.59 7.299.59 8.894v1.199h10.465v-1.2c0-1.594-3.486-2.397-5.233-2.397z"/>
            </g>
        </g>
        <g transform="translate(10.411 6)">
            <rect fill="#FBFBFB" fill-rule="nonzero" x="2.707" width="6.3" height="5.71" rx="2.855"/>
            <path d="M5.5 5.4C3.664 5.4 0 6.293 0 8.067V9.4h11V8.067C11 6.293 7.336 5.4 5.5 5.4z" fill="#FFF" fill-rule="nonzero"/>
            <g fill="#FFF" fill-opacity="0">
                <path d="M5.823 5.713c1.722 0 3.116-1.278 3.116-2.856C8.94 1.278 7.545 0 5.823 0 4.101 0 2.707 1.278 2.707 2.857c0 1.578 1.394 2.856 3.116 2.856z" fill="none" fill-rule="nonzero"/>
                <path d="M5.823.5c.728 0 1.389.267 1.866.705.461.423.75 1.005.75 1.652 0 .646-.289 1.229-.75 1.651a2.754 2.754 0 0 1-1.866.705 2.754 2.754 0 0 1-1.866-.705c-.46-.422-.75-1.005-.75-1.651 0-.647.29-1.23.75-1.652A2.754 2.754 0 0 1 5.823.5z" stroke="#DFE3E9" fill="none"/>
            </g>
            <path d="M5.821 5.296c1.446 0 2.617-1.073 2.617-2.398C8.438 1.573 7.267.5 5.82.5 4.376.5 3.205 1.573 3.205 2.898c0 1.325 1.17 2.398 2.616 2.398zm0 0c1.446 0 2.617-1.073 2.617-2.398C8.438 1.573 7.267.5 5.82.5 4.376.5 3.205 1.573 3.205 2.898c0 1.325 1.17 2.398 2.616 2.398zm0 1.2C4.075 6.496.59 7.299.59 8.894v1.199h10.465v-1.2c0-1.594-3.486-2.397-5.233-2.397z" fill="#5D6A74" fill-rule="nonzero"/>
        </g>
        <g transform="translate(14.811 8.5)">
            <rect fill="none" x="2.707" width="6.3" height="5.71" rx="2.855"/>
            <path d="M5.5 5.5C3.664 5.5 0 6.393 0 8.167V9.5h11V8.167C11 6.393 7.336 5.5 5.5 5.5z" fill="#FFF" fill-rule="nonzero"/>
            <path d="M5.823.5c.728 0 1.389.267 1.866.705.461.423.75 1.005.75 1.652 0 .646-.289 1.229-.75 1.651a2.754 2.754 0 0 1-1.866.705 2.754 2.754 0 0 1-1.866-.705c-.46-.422-.75-1.005-.75-1.651 0-.647.29-1.23.75-1.652A2.754 2.754 0 0 1 5.823.5z" fill="#FFF" stroke="#DFE3E9"/>
            <path d="M5.821 5.296c1.446 0 2.617-1.073 2.617-2.398C8.438 1.573 7.267.5 5.82.5 4.376.5 3.205 1.573 3.205 2.898c0 1.325 1.17 2.398 2.616 2.398zm0 0c1.446 0 2.617-1.073 2.617-2.398C8.438 1.573 7.267.5 5.82.5 4.376.5 3.205 1.573 3.205 2.898c0 1.325 1.17 2.398 2.616 2.398zm0 1.2C4.075 6.496.59 7.299.59 8.894v1.199h10.465v-1.2c0-1.594-3.486-2.397-5.233-2.397z" fill="#5D6A74" fill-rule="nonzero"/>
        </g>
    </g>
</svg>
