<svg xmlns="http://www.w3.org/2000/svg" width="148" height="110" viewBox="0 0 148 110">
    <path fill="#5C5D5D" fill-rule="evenodd" d="M61.953 0C39.6 0 23.99 19.852 25.76 39.746 11.367 40.731 0 53.14 0 67.031 0 83.965 12.974 96.25 27.535 96.25h20.651c.91.013 1.745-.81 1.745-1.719 0-.908-.836-1.731-1.745-1.719H27.535c-12.628 0-24.093-10.588-24.093-25.78 0-12.513 10.826-24.063 24.093-24.063.998.012 1.877-1.003 1.72-1.988-2.585-18.393 11.8-37.544 32.698-37.544 14.04 0 24.525 8.168 29.418 17.94.409.8 1.51 1.159 2.312.752 6.345-3.169 13.946-2.761 19.898.806 5.952 3.566 10.326 10.246 10.326 20.034.015.799.662 1.54 1.452 1.665 11.275 1.89 19.2 12.95 19.2 24.116 0 13.377-10.788 24.062-27.536 24.062H99.814c-.91-.012-1.745.811-1.745 1.72 0 .907.836 1.73 1.745 1.718h17.21c18.252 0 30.976-12.244 30.976-27.5 0-12.341-8.403-24.327-20.813-27.124-.423-10.111-5.238-17.663-11.885-21.646-6.518-3.905-14.567-4.38-21.673-1.396C87.933 8.326 76.711 0 61.953 0zm-1.936 79.009c-1.303.126-1.968 2.05-1.021 2.954l12.53 12.568-12.53 12.515c-.64.645-.63 1.816.02 2.451.319.312.777.503 1.217.503.459 0 .915-.205 1.236-.537L74 96.948l12.53 12.515a1.79 1.79 0 0 0 1.237.537c.437 0 .892-.213 1.203-.518.646-.63.662-1.788.034-2.436L76.474 94.53l12.53-12.568c1.005-.967.102-3.032-1.29-2.954a1.742 1.742 0 0 0-1.183.537L74 92.06 61.47 79.546a1.75 1.75 0 0 0-1.453-.537z"/>
</svg>
