<svg version="1.1" id="Layer_1" xmlns="http://www.w3.org/2000/svg" xmlns:xlink="http://www.w3.org/1999/xlink" x="0px" y="0px"
    width='18' height='18' viewBox="0 0 18 18" xml:space="preserve">
<g>
    <g>
        <path class="st0" d="M7.8,4.7c-0.1,0-0.2,0.1-0.3,0.1C7.4,4.9,7.4,4.9,7.3,4.9c0,0,0,0,0,0c0,0,0,0,0,0c-0.1,0-0.3,1.2-0.8,1.3
            c0,0-0.1,0-0.1,0C6,6.3,6.1,4.9,6.1,4.9c-0.6,0.9-1,1.2-1.2,1.2c-0.2,0-0.3-0.2-0.4-0.5C3.8,6.5,3.4,7.7,3.4,8.9
            c0.3,0,0.6-0.1,1-0.1c0.5,0,0.9,0,1.2,0.2c0.9,0.5,2,1.6,2,1.6l-2.2,2.6c1,0.9,2.3,1.4,3.7,1.4c3.1,0,5.6-2.5,5.6-5.6
            c0-0.5-0.1-1-0.2-1.5C13.9,8,13,8.7,13,8.7c0,0-0.1,0-0.1,0c-0.7,0-0.3,0.9-0.3,0.9c0.3,2.2-0.8,2.4-0.8,2.4
            c-0.3,0.3-0.6,0.4-0.8,0.4c-1.1,0-2-2.3-2-2.3C8.7,8.2,8.5,7.6,8.5,7.6c-2-1.2,0-1.7,0.4-1.8h0c0.1,0,0.1,0,0.1,0c0,0,0,0-0.1,0
            c-0.1,0-0.1,0-0.1,0c-0.4,0-0.3-0.3-0.7-0.9C8,4.7,7.9,4.7,7.8,4.7 M9,16.9c-4.3,0-7.9-3.5-7.9-7.9c0-4.3,3.5-7.9,7.9-7.9
            c4.3,0,7.9,3.5,7.9,7.9C16.9,13.3,13.3,16.9,9,16.9"/>
        <path class="st1" d="M7.3,4.9c0,0,0.1-0.1,0.2-0.1c0.1-0.1,0.2-0.1,0.3-0.1c0.1,0,0.2,0.1,0.3,0.3c0.3,0.6,0.2,0.9,0.7,0.9
            c0,0,0.1,0,0.1,0c0,0,0.1,0,0.1,0c0,0,0,0-0.1,0h0C8.5,5.9,6.6,6.3,8.5,7.6c0,0,0.2,0.6,0.5,2.6c0,0,0.8,2.3,2,2.3
            c0.3,0,0.5-0.1,0.8-0.4c0,0,1.1-0.3,0.8-2.4c0,0-0.4-0.9,0.3-0.9c0,0,0.1,0,0.1,0c0,0,0.9-0.7,1.4-1.2c0.1,0.5,0.2,1,0.2,1.5
            c0,3.1-2.5,5.6-5.6,5.6c-1.4,0-2.7-0.5-3.7-1.4l2.2-2.6c0,0-1-1.2-2-1.6C5.3,8.9,4.9,8.8,4.4,8.8c-0.4,0-0.8,0-1,0.1
            c0-1.2,0.4-2.3,1.2-3.3c0.1,0.3,0.2,0.5,0.4,0.5c0.2,0,0.6-0.3,1.2-1.2c0,0-0.1,1.3,0.3,1.3c0,0,0.1,0,0.1,0
            C7.1,6.1,7.3,4.9,7.3,4.9C7.3,4.9,7.3,4.9,7.3,4.9C7.3,4.9,7.3,4.9,7.3,4.9 M9,1.1C4.7,1.1,1.1,4.7,1.1,9c0,4.3,3.5,7.9,7.9,7.9
            c4.3,0,7.9-3.5,7.9-7.9C16.9,4.7,13.3,1.1,9,1.1"/>
    </g>
</g>
</svg>