<?xml version="1.0" encoding="UTF-8"?>
<svg width="19px" height="14px" viewBox="0 0 19 14" version="1.1" xmlns="http://www.w3.org/2000/svg" xmlns:xlink="http://www.w3.org/1999/xlink">
    <title>icon_cloud_off@1.5x</title>
    <g id="Dashboard-(ADV_Status)" stroke="none" stroke-width="1" fill="none" fill-rule="evenodd">
        <g id="Dashboard_engage_bar-(Status-Update2d_Call-RDY_Disabled)" transform="translate(-1101.000000, -293.000000)" fill="#929292">
            <g id="Icon-Copy" transform="translate(1100.000000, 288.500000)">
                <path d="M16.2625,9.19666664 C15.7525,6.60916664 13.48,4.66666664 10.75,4.66666664 C9.63999996,4.66666664 8.61249996,4.98916664 7.74249996,5.54416664 L8.83749996,6.63916664 C9.40749996,6.33916664 10.06,6.16666664 10.75,6.16666664 C13.03,6.16666664 14.875,8.01166664 14.875,10.2916666 L14.875,10.6666666 L16,10.6666666 C17.245,10.6666666 18.25,11.6716666 18.25,12.9166666 C18.25,13.7641666 17.77,14.4991666 17.08,14.8816666 L18.1675,15.9691666 C19.12,15.2866666 19.75,14.1766666 19.75,12.9166666 C19.75,10.9366666 18.2125,9.33166664 16.2625,9.19666664 Z M3.99999996,5.61916664 L6.06249996,7.67416664 C3.66999996,7.77916664 1.74999996,9.74416664 1.74999996,12.1666666 C1.74999996,14.6491666 3.76749996,16.6666666 6.24999996,16.6666666 L15.0475,16.6666666 L16.5475,18.1666666 L17.5,17.2141666 L4.95249996,4.66666664 L3.99999996,5.61916664 Z M7.54749996,9.16666664 L13.5475,15.1666666 L6.24999996,15.1666666 C4.59249996,15.1666666 3.24999996,13.8241666 3.24999996,12.1666666 C3.24999996,10.5091666 4.59249996,9.16666664 6.24999996,9.16666664 L7.54749996,9.16666664 Z" id="icon_cloud_off"></path>
            </g>
        </g>
    </g>
</svg>