<svg viewBox="0 0 113 100" version="1.1" xmlns="http://www.w3.org/2000/svg" xmlns:xlink="http://www.w3.org/1999/xlink">
    <path fill="rgb(26, 186, 156)" d="M64.2838318,28.893287 C69.3938598,29.3913414 76.0119526,34.033777 76.0119526,43.0010215 C76.0119526,59.3164494 49.9537846,75.3174436 49.9537846,75.3174436 C49.9537846,75.3174436 23.8956168,58.6212103 23.8956168,42.9621824 C23.8956168,34.0335085 30.5205748,29.3913414 35.6191607,28.893287 C36.4567202,28.8064702 37.2439344,28.7699157 37.9899574,28.7699157 C43.8849113,28.7699157 46.7133907,29.8140023 49.9537846,33.6636432 C53.1896018,29.8140023 56.0180812,28.7699157 61.9199004,28.7699157 C62.6544811,28.7699157 63.4416955,28.8064702 64.2838318,28.893287 Z" id="heart"></path>
    <path d="M12.0050188,49.9326599 C12.0050188,28.9846731 29.0125101,12.0005599 49.9995529,12.0005599 C70.9797306,12.0005599 87.9940871,28.9846731 87.9940871,49.9326599 C87.9940871,70.8875007 70.9797306,87.8624751 49.9995529,87.8624751 C29.0125101,87.8624751 12.0050188,70.8875007 12.0050188,49.9326599 Z M112.638015,99.3748436 L89.4815561,80.5584384 C96.6511566,71.9178793 99.9968174,62.0298995 99.9968174,49.9326599 C99.9968174,22.3637477 77.6115538,0.0152683275 49.9995529,0.0152683275 C22.3829752,0.0152683275 0,22.3637477 0,49.9326599 C0,77.4992874 22.3829752,99.8500515 49.9995529,99.8500515 C61.7185199,99.8500515 72.4763532,95.8016456 80.9984062,89.0459256 L85.8223825,99.3748436 L112.638015,99.3748436 L112.638015,99.3748436 L112.638015,99.3748436 Z" id="Q"></path>
</svg>