<svg width="24" height="21" xmlns="http://www.w3.org/2000/svg">
    <g fill-rule="nonzero" fill="none">
        <path d="M13.81 4.3c.942 0 1.696-.8 1.696-1.792 0-.991-.754-1.791-1.695-1.791-.941 0-1.701.8-1.701 1.791 0 .992.76 1.792 1.7 1.792zM3.055 5.45c.11 0 .234.007.366.017-.437.28-.742.656-.742 1.15v.833H.42v-.833c0-.777 1.757-1.167 2.634-1.167zm6-4.733c.941 0 1.695.8 1.695 1.791 0 .992-.754 1.792-1.695 1.792-.941 0-1.7-.8-1.7-1.792 0-.991.759-1.791 1.7-1.791zM4.245.918c.915 0 1.647.737 1.647 1.65 0 .913-.732 1.65-1.647 1.65a1.65 1.65 0 1 1 0-3.3zM15.395 9.556c.942 0 1.696-.8 1.696-1.792 0-.991-.754-1.792-1.696-1.792-.94 0-1.7.8-1.7 1.792 0 .991.76 1.792 1.7 1.792zm-11.435.791c.11 0 .233.007.365.017-.436.28-.741.657-.741 1.15v.833H1.325v-.833c0-.777 1.758-1.167 2.635-1.167zm6.907-4.375c.942 0 1.696.8 1.696 1.792 0 .991-.754 1.792-1.696 1.792-.94 0-1.7-.8-1.7-1.792 0-.991.76-1.792 1.7-1.792zm-4.926.202c.914 0 1.647.737 1.647 1.65 0 .913-.733 1.65-1.647 1.65a1.65 1.65 0 1 1 0-3.3zM13.033 17.588c-1.608 0-4.83.605-4.83 1.811v1.294h9.66V19.4c0-1.206-3.222-1.811-4.83-1.811z" fill="#5D6A74"/>
        <path d="M13.023 18.468c-1.7 0-5.094.533-5.094 1.593v.796h10.188v-.796c0-1.06-3.394-1.593-5.094-1.593z" fill="#FFF"/>
        <g fill="#5D6A74">
            <path d="M18.66 16.006c1.145 0 2.063-1.014 2.063-2.27s-.918-2.27-2.063-2.27c-1.146 0-2.07 1.014-2.07 2.27s.924 2.27 2.07 2.27zm-5.521 0c1.146 0 2.063-1.014 2.063-2.27s-.917-2.27-2.063-2.27c-1.146 0-2.07 1.014-2.07 2.27s.924 2.27 2.07 2.27zm0 1.041c-1.608 0-4.83.583-4.83 1.742v1.245h9.66v-1.245c0-1.16-3.222-1.742-4.83-1.742zm5.52 0c1.608 0 4.831.583 4.831 1.742v1.245h-4.14v-1.245c0-.736-.56-1.299-1.36-1.717.242-.015.47-.025.67-.025zm-11.051.24c.214 0 .459.01.718.022-.86.35-1.46.82-1.46 1.437v1.042H2.423v-1.042c0-.97 3.46-1.458 5.186-1.458zm-.138-5.65c1.164 0 2.096.937 2.096 2.1 0 1.161-.932 2.1-2.096 2.1a2.099 2.099 0 1 1 0-4.2z"/>
        </g>
    </g>
</svg>
