<svg width="16px" height="16px" viewBox="0 0 16 16" version="1.1" xmlns="http://www.w3.org/2000/svg" xmlns:xlink="http://www.w3.org/1999/xlink">
<g>
    <g>
        <path d="M15.6600656,12.3644175 L12.0008944,8.70539986 C11.2790595,7.98359535 10.2009946,7.84298408 9.33229293,8.27106728 L6.00122839,4.94014256 L6.00122839,2.99970706 L2.00145107,0 L0.00156241301,1.99980471 L3.0013954,5.99941412 L4.94191236,5.99941412 L8.27297691,9.33033883 C7.84800057,10.199004 7.98549291,11.2770237 8.70732772,11.9988282 L12.366499,15.6578459 C12.8227236,16.1140514 13.5601825,16.1140514 14.0132823,15.6578459 L15.6600656,14.0111317 C16.1131654,13.5549263 16.1131654,12.8174983 15.6600656,12.3644175 L15.6600656,12.3644175 Z M10.3666103,7.03056342 C11.2509361,7.03056342 12.0821398,7.37427986 12.707105,7.99921883 L13.3133213,8.60540963 C13.8070438,8.38980568 14.2757677,8.08983498 14.6819951,7.68362465 C15.8413055,6.52436286 16.2350336,4.89327214 15.8663042,3.41216678 C15.797558,3.13094424 15.4444526,3.0340787 15.2382141,3.24030856 L12.9133436,5.56508154 L10.7915867,5.21199102 L10.4384813,3.09032321 L12.7633519,0.765550239 C12.9695904,0.559320379 12.869596,0.20622986 12.5852368,0.134361879 C11.1040693,-0.231227419 9.4729101,0.162484132 8.31672447,1.31862123 C7.42614905,2.20915926 7.00742237,3.38404453 7.02929615,4.5558051 L9.59477832,7.12117957 C9.84788922,7.06181037 10.1103746,7.03056342 10.3666103,7.03056342 Z M7.1199161,9.5928132 L5.34813975,7.82111122 L0.58590488,12.5862709 C-0.195301627,13.3674446 -0.195301627,14.632946 0.58590488,15.4141197 C1.36711139,16.1952934 2.63266593,16.1952934 3.41387243,15.4141197 L7.2761574,11.5519969 C7.03867063,10.9301826 6.96679963,10.2521238 7.1199161,9.5928132 L7.1199161,9.5928132 Z M2.00145107,14.7485597 C1.58897403,14.7485597 1.25149282,14.4110927 1.25149282,13.9986329 C1.25149282,13.5830485 1.58584921,13.2487062 2.00145107,13.2487062 C2.41705293,13.2487062 2.75140932,13.5830485 2.75140932,13.9986329 C2.75140932,14.4110927 2.41705293,14.7485597 2.00145107,14.7485597 Z" id="Shape"></path>
    </g>
</g>
</svg>