<?xml version="1.0" encoding="UTF-8" standalone="no"?><!DOCTYPE svg PUBLIC "-//W3C//DTD SVG 1.1//EN" "http://www.w3.org/Graphics/SVG/1.1/DTD/svg11.dtd"><svg width="100%" height="100%" viewBox="0 0 20 20" version="1.1" xmlns="http://www.w3.org/2000/svg" xmlns:xlink="http://www.w3.org/1999/xlink" xml:space="preserve" style="fill-rule:evenodd;clip-rule:evenodd;stroke-linejoin:round;stroke-miterlimit:2;"><path d="M19.117,2.105c0,-1.101 -0.894,-1.995 -1.995,-1.995l-15.01,0c-1.101,0 -1.995,0.894 -1.995,1.995l0,15.01c0,1.101 0.894,1.995 1.995,1.995l15.01,0c1.101,0 1.995,-0.894 1.995,-1.995l0,-15.01Z" style="fill:#7f8fa4;"/><path d="M6.657,3.663c0.043,0.011 0.052,0.021 0.064,0.03l6.851,5.814c0.086,0.087 0.08,0.132 0,0.212l-6.851,5.814c-0.09,0.064 -0.214,0.012 -0.225,-0.106l0,-11.628c0.011,-0.12 0.041,-0.147 0.161,-0.136Z" style="fill:#fff;"/></svg>